<svg width="25" height="20" viewBox="0 0 25 20" fill="none" xmlns="http://www.w3.org/2000/svg">
<path d="M2.69714 2.5H22.3946M2.69714 7.5H11.561M2.69714 12.5H8.60639M2.69714 17.5H6.63664" stroke="white" stroke-miterlimit="10" stroke-linecap="round" stroke-linejoin="round"/>
<path d="M12.3883 18.3333C12.9577 18.3333 13.5038 18.1419 13.9065 17.8012C14.3091 17.4605 14.5353 16.9985 14.5353 16.5167C14.5353 16.0349 14.3091 15.5728 13.9065 15.2321C13.5038 14.8914 12.9577 14.7 12.3883 14.7C11.8189 14.7 11.2728 14.8914 10.8701 15.2321C10.4675 15.5728 10.2413 16.0349 10.2413 16.5167C10.2413 16.9985 10.4675 17.4605 10.8701 17.8012C11.2728 18.1419 11.8189 18.3333 12.3883 18.3333Z" stroke="white" stroke-linecap="round" stroke-linejoin="round"/>
<path d="M22.3946 15.3083V8.21666C22.3946 6.70833 21.2719 6.49999 20.1393 6.75833L15.8551 7.74999C15.077 7.93333 14.5353 8.44999 14.5353 9.20833V16.5167" stroke="white" stroke-linecap="round" stroke-linejoin="round"/>
<path d="M14.5353 11.3333L22.3946 9.51666M20.2476 17.125C20.817 17.125 21.3631 16.9336 21.7658 16.5929C22.1684 16.2522 22.3946 15.7901 22.3946 15.3083C22.3946 14.8265 22.1684 14.3644 21.7658 14.0238C21.3631 13.6831 20.817 13.4917 20.2476 13.4917C19.6782 13.4917 19.1321 13.6831 18.7294 14.0238C18.3268 14.3644 18.1006 14.8265 18.1006 15.3083C18.1006 15.7901 18.3268 16.2522 18.7294 16.5929C19.1321 16.9336 19.6782 17.125 20.2476 17.125Z" stroke="white" stroke-linecap="round" stroke-linejoin="round"/>
</svg>
