<svg width="56" height="56" viewBox="0 0 56 56" fill="none" xmlns="http://www.w3.org/2000/svg">
<path d="M27.9299 42C27.9299 44.4753 26.9466 46.8493 25.1962 48.5996C23.4459 50.35 21.0719 51.3333 18.5966 51.3333C16.1212 51.3333 13.7473 50.35 11.9969 48.5996C10.2466 46.8493 9.26324 44.4753 9.26324 42C9.26324 39.5246 10.2466 37.1507 11.9969 35.4003C13.7473 33.65 16.1212 32.6667 18.5966 32.6667C21.0719 32.6667 23.4459 33.65 25.1962 35.4003C26.9466 37.1507 27.9299 39.5246 27.9299 42ZM27.9299 42V9.33332M34.0899 4.92332L44.4032 8.35332C46.8999 9.19332 48.9532 12.0167 48.9532 14.6533V17.3833C48.9532 20.9533 46.1999 22.9367 42.8166 21.8167L32.5032 18.3867C30.0066 17.5467 27.9532 14.7233 27.9532 12.0867V9.33332C27.9299 5.78665 30.7066 3.77998 34.0899 4.92332Z" stroke="url(#paint0_linear_10_310)" stroke-width="3.5" stroke-linecap="round" stroke-linejoin="round"/>
<defs>
<linearGradient id="paint0_linear_10_310" x1="29.1082" y1="4.60172" x2="29.1082" y2="51.3333" gradientUnits="userSpaceOnUse">
<stop stop-color="#EBEBEB"/>
<stop offset="1" stop-color="#E16E91"/>
</linearGradient>
</defs>
</svg>
