<svg width="27" height="27" viewBox="0 0 27 27" fill="none" xmlns="http://www.w3.org/2000/svg">
<path d="M5.52083 11.0417C4.30625 11.0417 3.3125 12.0354 3.3125 13.25C3.3125 14.4646 4.30625 15.4583 5.52083 15.4583C6.73542 15.4583 7.72917 14.4646 7.72917 13.25C7.72917 12.0354 6.73542 11.0417 5.52083 11.0417ZM20.9792 11.0417C19.7646 11.0417 18.7708 12.0354 18.7708 13.25C18.7708 14.4646 19.7646 15.4583 20.9792 15.4583C22.1938 15.4583 23.1875 14.4646 23.1875 13.25C23.1875 12.0354 22.1938 11.0417 20.9792 11.0417ZM13.25 11.0417C12.0354 11.0417 11.0417 12.0354 11.0417 13.25C11.0417 14.4646 12.0354 15.4583 13.25 15.4583C14.4646 15.4583 15.4583 14.4646 15.4583 13.25C15.4583 12.0354 14.4646 11.0417 13.25 11.0417Z" fill="white" stroke="white"/>
</svg>
