<svg width="25" height="24" viewBox="0 0 25 24" fill="none" xmlns="http://www.w3.org/2000/svg">
<path d="M20.4245 7.22V16.79C20.4245 18.75 18.2945 19.98 16.5945 19L12.4445 16.61L8.29455 14.21C6.59455 13.23 6.59455 10.78 8.29455 9.8L12.4445 7.4L16.5945 5.01C18.2945 4.03 20.4245 5.25 20.4245 7.22ZM3.94455 18.18V5.82V18.18Z" fill="white"/>
<path d="M3.94455 18.18V5.82M20.4245 7.22V16.79C20.4245 18.75 18.2945 19.98 16.5945 19L12.4445 16.61L8.29455 14.21C6.59455 13.23 6.59455 10.78 8.29455 9.8L12.4445 7.4L16.5945 5.01C18.2945 4.03 20.4245 5.25 20.4245 7.22Z" stroke="white" stroke-width="1.5" stroke-linecap="round" stroke-linejoin="round"/>
</svg>
