<svg width="25" height="24" viewBox="0 0 25 24" fill="none" xmlns="http://www.w3.org/2000/svg">
<path d="M3.94455 7.22V16.79C3.94455 18.75 6.07455 19.98 7.77455 19L11.9245 16.61L16.0745 14.21C17.7745 13.23 17.7745 10.78 16.0745 9.8L11.9245 7.4L7.77455 5.01C6.07455 4.03 3.94455 5.25 3.94455 7.22ZM20.4245 18.18V5.82V18.18Z" fill="white"/>
<path d="M20.4245 18.18V5.82M3.94455 7.22V16.79C3.94455 18.75 6.07455 19.98 7.77455 19L11.9245 16.61L16.0745 14.21C17.7745 13.23 17.7745 10.78 16.0745 9.8L11.9245 7.4L7.77455 5.01C6.07455 4.03 3.94455 5.25 3.94455 7.22Z" stroke="white" stroke-width="1.5" stroke-linecap="round" stroke-linejoin="round"/>
</svg>
