<svg width="24" height="24" viewBox="0 0 24 24" fill="none" xmlns="http://www.w3.org/2000/svg">
<path d="M11.97 18C11.97 19.0609 11.5485 20.0783 10.7984 20.8284C10.0483 21.5786 9.03084 22 7.96997 22C6.9091 22 5.89169 21.5786 5.14154 20.8284C4.3914 20.0783 3.96997 19.0609 3.96997 18C3.96997 16.9391 4.3914 15.9217 5.14154 15.1716C5.89169 14.4214 6.9091 14 7.96997 14C9.03084 14 10.0483 14.4214 10.7984 15.1716C11.5485 15.9217 11.97 16.9391 11.97 18ZM11.97 18V4M14.61 2.11L19.03 3.58C20.1 3.94 20.98 5.15 20.98 6.28V7.45C20.98 8.98 19.8 9.83 18.35 9.35L13.93 7.88C12.86 7.52 11.98 6.31 11.98 5.18V4C11.97 2.48 13.16 1.62 14.61 2.11Z" stroke="#9B9B9B" stroke-width="1.5" stroke-linecap="round" stroke-linejoin="round"/>
</svg>
