<svg width="24" height="24" viewBox="0 0 24 24" fill="none" xmlns="http://www.w3.org/2000/svg">
<path d="M5.48001 18.49V15.57C5.48001 14.6 6.24001 13.73 7.32001 13.73C8.29001 13.73 9.16001 14.49 9.16001 15.57V18.38C9.16001 20.33 7.54001 21.95 5.59001 21.95C3.64001 21.95 2.02001 20.32 2.02001 18.38V12.22C1.91001 6.6 6.35001 2.05 11.97 2.05C17.59 2.05 22.02 6.6 22.02 12.11V18.27C22.02 20.22 20.4 21.84 18.45 21.84C16.5 21.84 14.88 20.22 14.88 18.27V15.46C14.88 14.49 15.64 13.62 16.72 13.62C17.69 13.62 18.56 14.38 18.56 15.46V18.49" stroke="#9B9B9B" stroke-width="1.5" stroke-linecap="round" stroke-linejoin="round"/>
<path d="M15.53 9.12H14.72C14.6112 9.12119 14.5046 9.1515 14.4114 9.20777C14.3182 9.26404 14.2418 9.34422 14.19 9.44L13.44 10.94C13.33 11.16 13.02 11.16 12.91 10.94L11.07 7.27C10.96 7.06 10.66 7.05 10.55 7.26L9.71002 8.81C9.61002 9 9.41002 9.12 9.19002 9.12H8.46002" stroke="#9B9B9B" stroke-width="1.5" stroke-linecap="round" stroke-linejoin="round"/>
</svg>
